<?xml version="1.0" encoding="utf-8"?>
<!-- Designed by Vexels.com - 2020 All Rights Reserved - https://vexels.com/terms-and-conditions/  -->
<svg version="1.1" id="Capa_1" xmlns="http://www.w3.org/2000/svg" xmlns:xlink="http://www.w3.org/1999/xlink" x="0px" y="0px"
	 viewBox="0 0 1200 1200" enable-background="new 0 0 1200 1200" xml:space="preserve">
<g>
	<g>
		<path fill="#C85937" d="M309.596,658.849L107.946,392.3l254.96,48.674L50,121.115l689.936,373.411
			C739.936,494.526,348.999,396.936,309.596,658.849z"/>
		<g>
			<g>
				<g>
					<path fill="#C85937" d="M343.81,649.108l-33.607-30.965c0,0-11.2,3.954,1.709,46.957
						c72.547,57.894,119.528,140.668,119.528,140.668s43.994,86.839,50.231,102.763c6.236,15.925,91.4,8.87,72.525-70
						c-18.874-78.871-75.672-130.098-121.104-154.183C387.658,660.265,343.81,649.108,343.81,649.108z"/>
					<path fill="#D68933" d="M310.787,658.912c0,0-4.746-15.011-4.615-24.689c0.132-9.678,4.281-12.849,7.935-1.066
						c3.654,11.783,11.755,41.52,16.51,58.598c4.755,17.079,12.398,37.422,21.929,48.404c9.531,10.984,70.785,79.578,85.213,97.081
						c14.43,17.503,34.208,51.505,38.186,60.947c0.927-3.508-2.178-12.35-4.932-25.588c-2.754-13.237-9.254-52.924-7.556-69.916
						c1.697-16.993,11.906-55.865,36.501-30.892c24.592,24.976,53.86,94.599,64.696,139.04
						c10.836,44.443,20.142,93.554,21.751,104.725c1.607,11.169,2.894,24.387,13.348,32.156
						c10.455,7.766,31.352,24.185,82.035,28.981c50.682,4.795,151.335,1.764,207.517-9.499
						c56.181-11.261,153.782-48.655,177.151-63.005c23.369-14.35,63.128-47.541,68.631-63.894
						c5.501-16.353,0.996-30.202,0.996-30.202s4.76-4.922,6.128-19.275c1.369-14.356,1.287-29.904,2.568-37.806
						c1.279-7.902,2.368-23.141,2.368-23.141s6.192-23.971,0.333-46.049c-5.859-22.081-16.816-36.016-16.816-36.016
						s-15.861-63.283-138.267-100.147c-29.744-13.018-79.382-29.827-84.634-31.951c-5.25-2.124-23.551-15.28-34.858-25.115
						c-11.306-9.834-57.61-55.93-98.08-78.48c-40.468-22.55-66.418-34.05-151.422-38.725s-199.055-2.214-222.455,7.828
						c-14.135,6.067-40.227,27.703-49.018,50.264c-8.791,22.562-10.712,36.561-19.075,40.43c-8.365,3.869-14.03,0.502-18.062,16.723
						c-4.031,16.221-7.121,27.087-8.918,31.911c-1.796,4.824-3.486,14.497-0.696,25.791c2.79,11.292,5.297,18.973,5.297,18.973
						L310.787,658.912z"/>
					<path fill="#C85937" d="M1104.338,785.289c-4.264-10.031-23.684-48.722-49.419-76.06
						c-25.735-27.336-51.79-52.624-93.217-69.321c-26.406-10.641-47.237-17.985-58.886-21.915c0.363,0.245,0.734,0.508,1.091,0.744
						c-10.914,9.971-57.64,16.156-97.956,20.228c-40.315,4.072-140.298,11.512-186.965,13.518
						c-45.046,1.936-93.516-0.274-102.954-1.108c3.011,2.253,6.624,4.426,10.996,6.384c25.657,11.495,99.707,45.062,150.078,72.734
						c50.371,27.672,113.479,67.838,141.098,86.106s46.438,36.418,76.342,37.706c29.902,1.287,102.555-13.566,131.996-21.379
						c29.442-7.814,62.459-19.979,70.749-25.439C1105.578,802.027,1108.602,795.322,1104.338,785.289z"/>
					<path fill="#FFFFFF" d="M460.681,596.87c0,0-11.295-43.054-20.889-65.625c-9.593-22.571-21.442-40.991-35.517-41.403
						c-14.074-0.412-39.781,13.319-48.656,34.978c-8.874,21.66-7.104,37.085-1.758,48.377c5.347,11.293,19.263,23.362,32.136,31.237
						c12.873,7.876,53.945,29.114,63.353,32.982c9.407,3.869,16.303-1.758,15.347-12.331
						C463.741,614.512,464.486,608.361,460.681,596.87z"/>
					<path fill="#FFFFFF" d="M452.373,633.325c-1.16-0.017-2.447-0.316-3.826-0.891c-8.911-3.724-49.151-24.852-61.697-32.652
						c-13.92-8.656-25.676-20.18-29.95-29.36c-5.857-12.581-5.258-27.244,1.832-44.826c7.922-19.644,31.417-32.428,43.482-32.264
						l0.254,0.006c6.879,0.203,17.852,7.085,31.072,38.718c9.2,22.02,20.219,64.589,20.328,65.016l0.035,0.134l0.042,0.132
						c2.606,8.006,2.885,13.161,3.239,19.688c0.126,2.344,0.259,4.768,0.504,7.539c0.287,3.223-0.31,5.826-1.678,7.328
						c-0.885,0.971-2.108,1.453-3.637,1.432C452.374,633.325,452.374,633.325,452.373,633.325z"/>
					<path fill="#FFFFFF" d="M412.77,496.337c0,0-16.848,30.865-22.03,109.995c-3.496-1.807-9.9-5.415-9.9-5.415
						s0.9-66.281,27.284-108.164C410.454,493.958,412.77,496.337,412.77,496.337z"/>
					<path fill="#FFFFFF" d="M586.404,1015.556c-1.609-11.17-10.915-60.282-21.751-104.725
						c-9.849-40.393-34.924-101.587-57.878-131.152c-7.681,1.142-21.162,5.522-26,22.064c-6.921,23.667-9.661,47.169-4.329,91.903
						c5.332,44.734,20.74,92.683,33.418,114.856c12.679,22.171,36.038,35.47,47.887,37.831c8.555,1.705,25.417-0.185,35.513-5.706
						C588.607,1033.165,587.591,1023.802,586.404,1015.556z"/>
					<path fill="#C85937" d="M544.142,912.453c9.897,50.876,6.718,93.394-7.101,94.968c-13.819,1.574-33.042-38.393-42.94-89.27
						c-9.895-50.875-6.716-93.393,7.103-94.967C515.022,821.61,534.246,861.577,544.142,912.453z"/>
					<path fill="#FFFFFF" d="M352.546,740.159c-9.531-10.982-17.174-31.325-21.929-48.404c-4.378-15.727-11.595-42.18-15.561-55.469
						c-3.222,4.72-4.265,13.152-4.325,22.428c0.555,1.949,0.069,5.652,0.069,5.652c0.102,3.456,0.303,6.948,0.542,10.335
						c1.292,18.278,7.346,58.401,11.37,69.895c4.024,11.495,9.997,14.005,15.206,14.286c7.045,0.383,14.738,0.201,22.436,0.305
						c3.508,0.047,5.9-0.789,7.474-1.714C360.532,749.24,354.925,742.904,352.546,740.159z"/>
					<path fill="#D68933" d="M872.904,590.594c0.549,0.477,1.118,0.964,1.695,1.454c0.403-3.262,0.619-7.26-0.109-10.233
						c-1.459-5.96-3.185-8.623-10.638-10.484c-5.386-1.345-11.468-2.009-14.429-2.276
						C860.448,579.025,868.887,587.1,872.904,590.594z"/>
					<path fill="#C85937" d="M405.677,597.075c0,0,4.808,2.375,7.804,8.576c2.996,6.201,6.688,15.18,8.247,19.161
						c1.559,3.982,2.999,5.899,1.519,6.906c-1.48,1.006-10.277,0.731-21.861,0.574c-11.585-0.158-28.302-0.385-33.581-0.456
						c-5.279-0.072-16.404-1.617-21.77-6.09c1.333-11.716,3.369-21.258,8.381-23.097c5.011-1.839,22.66-5.431,28.839-6.813
						C389.433,594.452,398.981,593.39,405.677,597.075z"/>
					<path fill="#FFFFFF" d="M469.201,628.225c-1.176-10.575-7.262-26.792-10.934-37.108c-3.673-10.318-6.084-16.363-7.555-16.09
						c-1.471,0.273-2.506,0.846-2.609,8.471c-0.104,7.625-1.49,44.861-1.49,44.861s-12.65-8.092-19.314-14.05
						c-6.666-5.958-18.49-20.932-25.263-18.97c-0.124,0.035-0.265,0.079-0.413,0.126c1.425,0.388,2.792,0.914,4.056,1.61
						c0,0,4.808,2.375,7.804,8.576c2.996,6.201,6.688,15.18,8.247,19.161c1.559,3.982,2.999,5.899,1.519,6.906
						c-1.48,1.006-10.277,0.731-21.861,0.574c-11.585-0.158-28.302-0.385-33.581-0.456c-5.279-0.072-16.404-1.617-21.77-6.09
						c0.095-0.838,0.196-1.697,0.3-2.51c-0.263,0.77-0.432,1.458-0.44,2.013c-0.038,2.786,2.281,4.862,5.77,7.11
						c3.49,2.247,6.977,4.636,20.61,5.115c13.634,0.479,37.962,1.834,47.346,1.962c9.386,0.128,22.427,1.037,25.787,2.109
						c3.358,1.072,19.358,10.824,19.358,10.824l4.596-3.605C469.362,648.762,470.377,638.802,469.201,628.225z"/>
					<path fill="#C85937" d="M1136.083,910.094c0,0,4.76-4.922,6.128-19.275c1.369-14.356,1.287-29.904,2.568-37.806
						c0.62-3.825,1.194-9.367,1.62-14.068c-0.435-0.145-5.418-1.578-18.488,3.279c-13.709,5.093-75.58,24.933-107.836,35.054
						c-32.258,10.122-87.928,26.964-102.506,31.167c-14.579,4.2-35.88,17.551-44.798,26.23
						c-47.464-4.165-147.051-25.76-182.167-31.957c-35.116-6.197-88.572-22.766-104.301-30.901
						c-15.729-8.133-33.046-29.047-39.441-44.095c-6.395-15.046-20.458-48.678-39.129-66.973
						c-18.673-18.294-30.906-24.619-46.193-0.628c-8.338-33.993-16.523-46.864-32.626-59.843
						c-16.105-12.979-48.294-40.257-63.952-53.67c-15.658-13.414-30.364-32.094-38.774-60.808
						c-2.999,26.359-4.082,41.304-0.362,58.955c3.72,17.651,10.454,40.182,14.686,52.56c4.232,12.377,11.627,29.345,24.915,44.486
						c13.288,15.141,15.525,23.091,9.158,16.844c-6.368-6.246-25.748-26.457-30.578-37.963
						c-4.831-11.506-12.427-35.369-16.332-50.089c-3.906-14.72-12.334-42.115-11.259-56.473c1.075-14.359,2.697-25.777,3.636-30.165
						c0.347-1.618-0.061-3.683-1.02-5.549c-1.593,2.063-2.997,5.204-4.244,10.224c-4.031,16.221-7.121,27.087-8.918,31.911
						c-1.796,4.824-3.486,14.497-0.696,25.791c2.79,11.292,5.297,18.973,5.297,18.973l0.263-6.568c0,0-4.697-14.837-4.565-24.515
						c0.132-9.678,4.281-12.849,7.935-1.066c3.654,11.783,11.755,41.52,16.51,58.598c4.755,17.079,12.398,37.422,21.929,48.404
						c9.531,10.984,70.785,79.578,85.213,97.081c14.43,17.503,34.208,51.505,38.186,60.947c0.927-3.508-2.178-12.35-4.932-25.588
						c-2.754-13.237-9.254-52.924-7.556-69.916c1.697-16.993,11.906-55.865,36.501-30.892c5.214,5.295,10.638,12.602,16.053,21.247
						c16.474,24.576,38.391,69.274,47.191,95.187c9.307,27.407,25.987,95.102,29.818,115.392
						c3.831,20.293,3.654,33.198,24.298,46.678c14.885,9.72,32.977,18.098,48.925,24.429c4.85,0.776,10.009,1.444,15.544,1.968
						c50.682,4.795,151.335,1.764,207.517-9.499c56.181-11.261,153.782-48.655,177.151-63.005
						c23.369-14.35,63.128-47.541,68.631-63.894C1140.588,923.943,1136.083,910.094,1136.083,910.094z"/>
					<path fill="#D68933" d="M1130.663,747.807c0,0-15.861-63.283-138.267-100.147c-1.538-0.674-3.133-1.358-4.768-2.049
						c0.919,0.54,1.828,1.024,2.722,1.435c15.161,6.953,53.831,32.119,73.45,56.146c19.621,24.027,32.298,40.919,37.703,53.312
						c5.405,12.393,15.036,16.044,19.078,20.793c4.041,4.749,7.12,15.643,8.769,23.879c1.649,8.236,7.128,15.057,7.013,23.562
						c-0.115,8.506-4.416,22.822,1.991,26.135c1.53,0.79,3.831,1.418,6.518,1.56c1.238-8.043,2.276-22.56,2.276-22.56
						s6.192-23.971,0.333-46.049C1141.621,761.742,1130.663,747.807,1130.663,747.807z"/>
					<path fill="#C85937" d="M452.491,713.799c-0.811,2.007,0.624,8.075,2.599,13.822c1.975,5.747,6.078,16.803,7.745,12.866
						c1.667-3.938,3.828-11.829,2.829-13.896C464.666,724.525,453.553,711.174,452.491,713.799z"/>
					<path fill="#C85937" d="M805.951,638.964c40.316-4.072,87.042-10.257,97.956-20.228c-14.609-9.659-34.168-27.306-45.469-37.579
						c-11.3-10.273-47.364-43.764-69.183-57.042c-21.821-13.277-41.645-27.626-86.799-39.9c-10.108-2.747-21.5-5.059-33.097-6.995
						c-13.215-1.596-28.31-2.862-45.957-3.833c-84.409-4.643-197.444-2.247-221.935,7.62c5.349-1.101,11.483-1.435,17.223,0.449
						c14.673,4.82,27.249,18.41,35.359,36.781c8.111,18.371,21.691,55.075,27.383,73.413c5.69,18.338,10.983,33.59,15.925,42.237
						c4.942,8.647,10.993,16.65,17.803,17.403c6.81,0.752,57.157,3.197,103.825,1.192
						C665.654,650.476,765.637,643.036,805.951,638.964z"/>
					<path fill="#FFFFFF" d="M482.04,498.38c-8.147,0.549-21.327-0.951-15.532,9.688c5.796,10.639,23.58,45.641,33.597,69.318
						c10.018,23.677,18.958,45.799,26.802,51.405c7.844,5.607,14.145,11.412,35.917,11.929
						c21.774,0.515,184.243-7.396,217.957-11.338c33.712-3.942,75.125-7.779,83.743-10.521c8.618-2.744,10.723-11.955,5.547-19.725
						c-5.173-7.77-33.425-33.455-45.166-43.735c-11.741-10.279-46.658-36.494-67.932-46.757
						c-21.273-10.263-29.726-14.191-45.86-14.117c-16.136,0.074-100.025-0.187-125.847,0.342
						C559.448,495.399,482.04,498.38,482.04,498.38z"/>
					<path fill="#FFFFFF" d="M618.184,824.733c16.387,20.816,26.767,37.765,55.285,43.873c28.516,6.109,53.96,11.733,73.288,14.196
						c19.326,2.463,36.031,3.57,55.467-1.886c19.434-5.455,39.344-13.545,32.829-19.793
						c-68.846-49.297-215.767-117.336-227.175-119.69c-11.407-2.356-21.122,0.153-22.615,12.892
						C583.768,767.065,610.831,815.392,618.184,824.733z"/>
					<g>
						<path fill="#5E4189" d="M1136.083,910.094c0,0,1.509-1.56,3.072-5.487C1137.986,906.952,1136.915,908.915,1136.083,910.094z"
							/>
					</g>
					<path fill="#C85937" d="M328.4,698.33c3.221,26.357,3.043,47.561-0.399,47.365c-3.441-0.196-8.843-21.722-12.066-48.077
						c-3.221-26.356-3.043-47.562,0.399-47.365C319.776,650.449,325.177,671.975,328.4,698.33z"/>
				</g>
			</g>
			<path fill="#FFFFFF" d="M1059.64,675.413c10.266,20.71,42.924,80.642,84.21,97.154c-5.873-15.449-13.186-24.76-13.186-24.76
				S1121.1,709.708,1059.64,675.413z"/>
			<g>
				<path fill="#FFFFFF" d="M1083.719,895.458c-48.052,22.579-98.814,38.87-151.031,48.469l-13.158,2.419
					c-70.347,12.932-142.405,13.55-212.963,1.825l-51.487-8.555c-10.225-1.699-19.604,6.002-19.926,16.362
					c-0.267,8.586,5.867,16.042,14.344,17.434l56.096,9.209c72.223,11.857,145.979,10.786,217.827-3.163l0,0
					c61.145-11.871,120.142-32.921,174.992-62.436l43.468-23.39c0.123-0.897,0.236-1.828,0.33-2.812
					c0.761-7.977,1.073-16.317,1.421-23.514L1083.719,895.458z"/>
				<path fill="#FFFFFF" d="M916.819,999.109l-12.531,2.304c-66.997,12.316-135.623,12.905-202.821,1.738l-49.035-8.148
					c-9.738-1.618-18.67,5.716-18.977,15.583c-0.255,8.177,5.588,15.278,13.661,16.604l53.425,8.771
					c68.784,11.293,139.027,10.273,207.454-3.013l0,0c58.233-11.306,114.421-31.354,166.659-59.463l60.105-32.343
					c0.111-0.283,0.237-0.573,0.329-0.846c3.137-9.327,3.018-17.827,2.338-23.42l-76.767,36.072
					C1014.894,974.452,966.55,989.967,916.819,999.109z"/>
			</g>
		</g>
	</g>
</g>
</svg>
